<svg width="234" height="14" viewBox="0 0 234 14" fill="none" xmlns="http://www.w3.org/2000/svg">
<g filter="url(#filter0_d_0_180)">
<path fill-rule="evenodd" clip-rule="evenodd" d="M158.976 0.856624C159.023 0.781266 159.05 0.69691 159.05 0.607854C159.05 0.288336 158.707 0.0293164 158.284 0.0293164C148.12 0.0293164 137.955 0.0227845 127.79 0.0162523C107.458 0.00318691 87.1237 -0.00987953 66.7914 0.0293183C65.1746 0.0324352 63.5405 0.0238004 61.8957 0.0151095C56.0773 -0.0156347 50.126 -0.0470811 44.343 0.43851C43.9011 0.475618 43.5547 0.510872 43.3021 0.545056C43.1771 0.561968 43.0602 0.580581 42.9598 0.602071C42.9098 0.612789 42.8516 0.626804 42.7926 0.645406C42.744 0.660756 42.6443 0.69453 42.5459 0.757598C42.4595 0.812975 42.2193 0.995065 42.2681 1.2894C42.3121 1.55501 42.5613 1.68657 42.6277 1.71935C42.7817 1.79549 42.9535 1.82323 43.0163 1.83337L43.018 1.83364C43.1993 1.86293 43.4495 1.88342 43.7267 1.89981C44.8574 1.96666 47.0779 1.99824 49.7001 2.01184C53.0484 2.02921 57.1163 2.01725 60.5314 2.00721C62.4778 2.00149 64.212 1.99639 65.4801 1.9977C81.539 2.01428 97.598 2.02073 113.657 2.02169C99.2751 2.29072 84.8943 2.61968 70.5183 3.04244C53.9095 3.10141 38.2377 3.15658 25.4621 3.20155C17.1597 3.23078 10.0804 3.2557 4.76195 3.27456C4.33916 3.27606 3.99802 3.53629 4.00001 3.85581C4.00199 4.17532 4.34634 4.43312 4.76914 4.43162C10.0875 4.41277 17.1666 4.38784 25.4689 4.35862C28.2721 4.34875 31.2147 4.33839 34.2761 4.32761C33.6892 4.3523 33.1023 4.3772 32.5155 4.4023C27.5122 4.61632 24.9578 4.73877 24.0573 4.79911C23.9436 4.80673 23.8495 4.81379 23.7772 4.82039C23.7415 4.82364 23.7047 4.82735 23.6703 4.83166L23.668 4.83195C23.6481 4.83443 23.5746 4.84355 23.4974 4.86473C23.4736 4.87125 23.425 4.88536 23.3688 4.91011C23.3337 4.92556 23.1842 4.99139 23.0816 5.13231C23.0378 5.20349 22.9886 5.36936 22.9894 5.46151C23.0088 5.55049 23.0896 5.70198 23.1437 5.76335C23.2632 5.88168 23.4086 5.93049 23.4441 5.94238C23.5363 5.97331 23.6179 5.98358 23.6362 5.98588L23.6379 5.98609C23.6692 5.99008 23.6965 5.99224 23.7142 5.99346C23.7785 5.99789 23.8576 5.99917 23.9281 5.99969C24.2288 6.00194 24.8392 5.99168 25.6394 5.97378C27.857 5.92416 31.6695 5.81232 34.9411 5.71635C36.4203 5.67296 37.7889 5.63281 38.8495 5.60313C69.4265 4.74729 100.032 4.26648 130.64 3.98316C149.669 3.91336 166.731 3.84895 178.567 3.8006C195.079 3.73315 203.869 3.68951 207.672 3.66236C208.622 3.65557 209.263 3.6498 209.636 3.64492C209.818 3.64253 209.948 3.64023 210.017 3.63778C210.032 3.63723 210.059 3.63621 210.086 3.63418L210.087 3.63414C210.093 3.6337 210.141 3.63036 210.196 3.62029C210.244 3.61036 210.423 3.54866 210.54 3.4808C210.772 3.16 210.555 2.64451 210.349 2.53524C210.284 2.51453 210.188 2.49286 210.158 2.48814C210.141 2.48586 210.113 2.48278 210.102 2.48172C210.08 2.47985 210.062 2.4789 210.053 2.47845C210.032 2.47745 210.011 2.47681 209.993 2.47636C209.725 2.46972 208.551 2.46676 206.843 2.46602C199.969 2.46303 184.096 2.49669 181.123 2.50833C167.428 2.56195 153.728 2.63558 140.028 2.74512C147.47 2.63726 154.911 2.5399 162.352 2.44835C181.122 2.21744 191.087 2.13177 209.402 2.04276C213.694 2.02191 217.985 2.01263 222.278 2.00334C223.134 2.00149 223.99 1.99964 224.846 1.9977H229.258C229.44 1.9977 229.536 1.99765 229.556 1.99755L229.565 1.99748C229.565 1.99748 229.573 1.99741 229.581 1.99718C229.589 1.99696 229.617 1.99561 229.638 1.99407C230.188 1.74376 230.049 0.977636 229.634 0.843619C229.615 0.842261 229.589 0.841033 229.582 0.840828L229.571 0.840587L229.563 0.840484L229.556 0.840434L229.526 0.840343L229.397 0.840158C229.167 0.839896 228.707 0.839583 228.155 0.839375C227.053 0.838957 225.581 0.838956 224.844 0.840626H223.175C205.653 0.840626 188.131 0.846656 170.609 0.852686C166.731 0.854021 162.853 0.855355 158.976 0.856624ZM23.9247 5.97269C23.9159 5.97399 23.914 5.97401 23.9216 5.97306C23.9221 5.97299 23.9232 5.97286 23.9247 5.97269ZM43.3147 0.697672C43.315 0.697584 43.3203 0.6985 43.3294 0.700682C43.3189 0.69885 43.3143 0.69776 43.3147 0.697672Z" fill="#197AFF"/>
</g>
<defs>
<filter id="filter0_d_0_180" x="0" y="0" width="234" height="14" filterUnits="userSpaceOnUse" color-interpolation-filters="sRGB">
<feFlood flood-opacity="0" result="BackgroundImageFix"/>
<feColorMatrix in="SourceAlpha" type="matrix" values="0 0 0 0 0 0 0 0 0 0 0 0 0 0 0 0 0 0 127 0" result="hardAlpha"/>
<feOffset dy="4"/>
<feGaussianBlur stdDeviation="2"/>
<feComposite in2="hardAlpha" operator="out"/>
<feColorMatrix type="matrix" values="0 0 0 0 0 0 0 0 0 0 0 0 0 0 0 0 0 0 0.25 0"/>
<feBlend mode="normal" in2="BackgroundImageFix" result="effect1_dropShadow_0_180"/>
<feBlend mode="normal" in="SourceGraphic" in2="effect1_dropShadow_0_180" result="shape"/>
</filter>
</defs>
</svg>
